<svg fill="none" viewBox="0 0 24 24" xmlns="http://www.w3.org/2000/svg"><path clip-rule="evenodd" d="M1.5 11a3.5 3.5 0 0 1 6.474-1.845C9.2 8.734 10.564 8.5 12 8.5s2.801.234 4.026.655a3.5 3.5 0 1 1 5.169 4.572c.198.565.305 1.16.305 1.773 0 1.996-1.121 3.758-2.843 5.002C16.934 21.745 14.579 22.5 12 22.5c-2.579 0-4.934-.754-6.657-1.998C3.621 19.258 2.5 17.495 2.5 15.5c0-.614.107-1.208.306-1.773A3.494 3.494 0 0 1 1.5 11ZM5 8.5a2.5 2.5 0 0 0-1.322 4.623.5.5 0 0 1 .194.623A4.365 4.365 0 0 0 3.5 15.5c0 1.594.894 3.082 2.429 4.19C7.463 20.8 9.609 21.5 12 21.5c2.392 0 4.537-.7 6.071-1.81 1.535-1.108 2.429-2.596 2.429-4.19 0-.608-.13-1.197-.372-1.754a.5.5 0 0 1 .194-.623 2.5 2.5 0 1 0-3.604-3.144.5.5 0 0 1-.638.26A11.292 11.292 0 0 0 12 9.5c-1.482 0-2.871.27-4.08.74a.5.5 0 0 1-.638-.262A2.5 2.5 0 0 0 5 8.5ZM19 2.5a1 1 0 1 0 0 2 1 1 0 0 0 0-2Zm-2 1a2 2 0 1 1 4 0 2 2 0 0 1-4 0Z" fill="#ffffff" fill-rule="evenodd" class="fill-000000"></path><path clip-rule="evenodd" d="M16 12.5a1 1 0 1 0 0 2 1 1 0 0 0 0-2Zm-2 1a2 2 0 1 1 4 0 2 2 0 0 1-4 0ZM8 12.5a1 1 0 1 0 0 2 1 1 0 0 0 0-2Zm-2 1a2 2 0 1 1 4 0 2 2 0 0 1-4 0ZM13.26 1.561a.5.5 0 0 1 .415-.03l4 1.5-.35.937-3.458-1.296-1.379 6.433-.977-.21 1.5-7a.5.5 0 0 1 .249-.334ZM9.773 18.48c.545.311 1.331.52 2.227.52.896 0 1.682-.209 2.227-.52.559-.32.773-.685.773-.98h1c0 .81-.57 1.444-1.277 1.848C14 19.761 13.037 20 12 20s-2.001-.24-2.723-.652C8.57 18.944 8 18.31 8 17.5h1c0 .295.214.66.773.98Z" fill="#ffffff" fill-rule="evenodd" class="fill-000000"></path></svg>