<svg baseProfile="tiny" viewBox="0 0 24 24" xml:space="preserve" xmlns="http://www.w3.org/2000/svg"><path d="M8.567 23.695c-.146 0-.294-.023-.44-.068l-.136-.045A12.013 12.013 0 0 1 .019 12.286C.019 5.68 5.394.305 12 .305c6.608 0 11.982 5.375 11.982 11.981 0 5.109-3.242 9.661-8.066 11.327l-.131.038a1.448 1.448 0 0 1-1.801-1.403V19.31c0-.688-.125-1.168-.373-1.426a.789.789 0 0 1 .441-1.324c2.921-.482 4.342-1.956 4.342-4.504 0-1.19-.318-2.159-.95-2.88a.794.794 0 0 1-.18-.659c.175-.996.147-1.656.065-1.976-.341.046-.995.242-2.07 1a.792.792 0 0 1-.637.123c-.757-.174-1.625-.265-2.572-.271h-.104c-.942.005-1.809.097-2.575.272a.819.819 0 0 1-.633-.129C7.605 6.74 6.952 6.565 6.672 6.53c-.083.315-.114.981.064 1.988a.782.782 0 0 1-.18.655c-.632.725-.952 1.693-.952 2.882 0 2.548 1.419 4.022 4.341 4.504a.787.787 0 0 1 .44 1.326c-.179.188-.295.497-.345.917a.793.793 0 0 1-.539.658c-.026.008-.052.017-.079.024a.781.781 0 0 1 .593.764v1.945c.001.853-.649 1.502-1.448 1.502zM12 1.097C5.831 1.097.812 6.116.812 12.286c0 4.725 2.99 8.963 7.44 10.547l.12.041a.656.656 0 0 0 .852-.626V20.25a7.219 7.219 0 0 1-1.424.168c-.405 0-.726-.057-.953-.167-.748-.358-1.13-.804-1.516-1.763-.179-.447-.476-.823-.907-1.149l-1.257-.952 1.558.245c.318.05.585.191.772.407.123.141.255.323.394.518.476.664 1.081 1.491 2.077 1.396.52-.054.954-.137 1.289-.244.067-.592.256-1.055.558-1.371-3.272-.536-5.002-2.365-5.002-5.282 0-1.386.386-2.53 1.146-3.402-.11-.607-.313-2.094.127-2.74l.092-.135.16-.031a1.19 1.19 0 0 1 .219-.019c.451 0 1.276.201 2.641 1.162.82-.189 1.745-.287 2.748-.292l.449-.062.001.067a12.35 12.35 0 0 1 2.408.287c1.36-.959 2.195-1.16 2.657-1.16.083 0 .144.007.184.013l.169.025.098.142c.442.643.239 2.134.131 2.746.759.867 1.144 2.011 1.144 3.398 0 2.917-1.729 4.746-5.004 5.286.594.613.594 1.634.594 1.969v2.938a.66.66 0 0 0 .814.636l.077-.023a11.19 11.19 0 0 0 7.522-10.574C23.189 6.116 18.169 1.097 12 1.097z" fill="#ffffff" class="fill-000000"></path></svg>