<svg viewBox="0 0 24 24" xml:space="preserve" xmlns="http://www.w3.org/2000/svg" enable-background="new 0 0 24 24"><path d="M3.614 15.036a.5.5 0 0 1-.496-.442 10.503 10.503 0 0 1-.078-1.226c0-4.967 3.525-9.222 8.201-9.896a.5.5 0 1 1 .142.99c-4.186.604-7.343 4.433-7.343 8.906 0 .339.022.691.072 1.11a.502.502 0 0 1-.498.558zM12.54 23.368c-3.105 0-6.021-1.607-7.801-4.299a.5.5 0 0 1 .834-.552c1.594 2.412 4.198 3.851 6.967 3.851 3.263 0 6.179-1.939 7.608-5h-3.095c-1.031 1.885-2.699 3-4.514 3-2.573 0-4.774-2.225-5.353-5.411a.497.497 0 0 1 .492-.59H20.98c.04-.364.06-.689.06-1 0-.428-.036-.882-.115-1.429-.502-3.299-2.675-6.019-5.669-7.091a.5.5 0 1 1 .338-.941c3.34 1.197 5.763 4.219 6.32 7.887.086.6.126 1.099.126 1.575s-.04.976-.125 1.571a.499.499 0 0 1-.495.429H8.302c.628 2.383 2.311 4 4.237 4 1.513 0 2.919-1.018 3.762-2.722a.5.5 0 0 1 .448-.278h4.15a.503.503 0 0 1 .468.676c-1.444 3.842-4.909 6.324-8.827 6.324z" fill="#ffffff" class="fill-000000"></path><path d="M17.4 12.368H9.023a.5.5 0 0 1 0-1h7.753c-.592-2.203-2.148-3.8-3.933-3.963a.5.5 0 0 1-.452-.543.508.508 0 0 1 .544-.453c2.423.222 4.415 2.379 4.957 5.37a.496.496 0 0 1-.492.589z" fill="#ffffff" class="fill-000000"></path><path d="M5.081 23.571c-.671 0-1.447-.339-1.848-.627-1.231-.889-1.59-2.974-.985-5.72.603-2.737 2.057-5.797 4.093-8.617 2.045-2.831 4.523-5.215 6.979-6.713C15.8.38 17.927.02 19.153.906c.563.406 1.219 1.279 1.147 3.129a.5.5 0 0 1-.453.478.492.492 0 0 1-.534-.385c-.185-.796-.532-.866-.647-.889-1.44-.3-4.947 2.968-8.527 7.923-4.464 6.175-5.1 8.958-4.849 10.206.091.449.313.775.679.999a.5.5 0 0 1 .171.68c-.104.177-.313.406-.718.492a1.723 1.723 0 0 1-.341.032zM17.489 1.42c-.943 0-2.221.456-3.649 1.327-2.311 1.41-4.748 3.759-6.688 6.446-1.958 2.711-3.353 5.64-3.927 8.246-.508 2.305-.285 4.06.594 4.694.252.181.592.315.883.385a2.568 2.568 0 0 1-.391-.953c-.43-2.128 1.212-5.723 5.017-10.99 1.516-2.097 6.69-8.881 9.536-8.317.057.012.114.026.175.045a1.499 1.499 0 0 0-.472-.587c-.276-.199-.641-.296-1.078-.296z" fill="#ffffff" class="fill-000000"></path></svg>